<svg width="30" height="32" viewBox="0 0 30 32" fill="none" xmlns="http://www.w3.org/2000/svg">
<path opacity="0.871" fill-rule="evenodd" clip-rule="evenodd" d="M18.5106 4.93926C20.1099 4.88824 21.7056 4.93947 23.2978 5.09301C24.238 6.18454 24.0252 7.00456 22.6595 7.55306C21.4893 7.75808 20.3191 7.75808 19.1489 7.55306C17.7207 6.96053 17.5079 6.08924 18.5106 4.93926Z" fill="#1F7F8B"/>
<path opacity="0.975" fill-rule="evenodd" clip-rule="evenodd" d="M6.38297 0.0192062C12.1286 -0.0320244 17.8733 0.019237 23.617 0.17296C26.9594 0.933516 29.0339 2.93231 29.8403 6.16934C30.0532 12.7295 30.0532 19.2896 29.8403 25.8498C29.031 29.0897 26.9565 31.0885 23.617 31.8462C17.8723 32.0513 12.1276 32.0513 6.38297 31.8462C3.03191 31.0774 0.957452 29.0786 0.159582 25.8498C-0.053194 19.2896 -0.053194 12.7295 0.159582 6.16934C1.02693 2.92536 3.10139 0.875336 6.38297 0.0192062ZM7.97871 2.47926C13.207 2.34909 18.4197 2.50285 23.617 2.94052C26.23 4.1298 27.5067 6.1286 27.4467 8.93691C19.2546 8.98814 11.0631 8.93691 2.87234 8.78315C2.69831 5.30823 4.40042 3.20691 7.97871 2.47926ZM14.0425 13.5495C17.4009 13.457 19.8477 14.8408 21.3829 17.7009C19.7613 18.4045 18.1124 19.0708 16.4361 19.6996C14.7971 18.8141 13.0418 18.1991 11.1702 17.8546C8.62355 19.1647 8.03842 18.6522 9.41487 16.3171C10.7083 14.9536 12.2508 14.0311 14.0425 13.5495ZM10.2127 21.2372C12.3937 21.7028 14.5214 22.3178 16.5957 23.0822C18.3024 22.7794 19.8982 22.1644 21.3829 21.2372C21.0386 24.8444 18.9109 26.6894 15 26.7723C11.8398 26.8401 9.71219 25.4563 8.617 22.621C9.01961 22.0177 9.5515 21.5564 10.2127 21.2372Z" fill="#1F7F8B"/>
</svg>
