<svg width="29" height="32" viewBox="0 0 29 32" fill="none" xmlns="http://www.w3.org/2000/svg">
<path opacity="0.942" fill-rule="evenodd" clip-rule="evenodd" d="M5.5523 0.206532C5.95753 0.0697388 6.3853 0.0170268 6.81299 0.0136975C11.9813 -0.0265341 17.1488 0.0218608 22.3155 0.158858C22.654 0.167833 22.9921 0.207457 23.3174 0.301375C25.6824 0.984138 27.3448 2.4379 28.3046 4.66265C28.4669 5.039 28.5516 5.4434 28.5892 5.85155C28.8979 9.2093 29.0326 12.5855 28.9934 15.9801C28.946 18.9907 28.8989 22.0013 28.8516 25.0119C28.8433 25.5356 28.7594 26.0588 28.563 26.5443C26.9465 30.541 23.9899 32.3418 19.6934 31.9467C18.9171 31.8753 17.9696 31.5213 17.9308 30.7427C17.8884 29.892 18.9674 29.6114 19.8124 29.5046C20.8538 29.373 21.884 29.1838 22.9032 28.9371C23.4656 28.801 24.0045 28.5615 24.4321 28.1715C25.6284 27.0804 26.2748 25.6769 26.3716 23.9606C26.4634 21.5272 26.5187 19.0932 26.5377 16.6589C26.5592 13.9069 24.3019 11.7023 21.5499 11.7021C16.9364 11.7018 12.3234 11.6513 7.71074 11.5504C7.09933 11.537 6.33636 11.4248 5.91524 10.9814C4.93181 9.94575 6.98807 9.05441 8.41597 9.02687C12.8074 8.94216 17.1991 8.90032 21.5912 8.90132C24.327 8.90195 26.82 6.36538 24.9224 4.39474C24.5439 4.00176 24.0986 3.6506 23.5863 3.34128C23.0974 3.046 22.5341 2.90542 21.9651 2.85483C17.3275 2.44247 12.6789 2.3669 8.01945 2.62818C4.6916 2.87041 2.89237 4.6609 2.62175 7.99966C2.351 13.6586 2.43106 19.307 2.86195 24.9449C2.90532 25.5124 3.03394 26.0772 3.33065 26.5629C3.86276 27.4341 4.56965 28.1314 5.45132 28.6547C5.91143 28.9279 6.44016 29.0526 6.97275 29.1041C9.33006 29.3321 11.6914 29.5304 14.0568 29.6987C14.9129 29.7597 15.9248 30.2668 15.6388 31.076C15.4495 31.6113 14.8079 31.8104 14.241 31.8417C11.687 31.9829 9.13307 31.9738 6.57909 31.8145C6.30598 31.7975 6.03373 31.7584 5.77005 31.6852C2.92854 30.8971 1.10014 29.1007 0.284849 26.2962C0.190113 25.9703 0.148723 25.6314 0.138623 25.2921C-0.0458041 19.0977 -0.0462068 12.9032 0.137415 6.70882C0.148267 6.34271 0.195747 5.97723 0.304154 5.62737C1.14606 2.91034 2.89544 1.10339 5.5523 0.206532ZM13.2643 16.3005C13.8732 16.0852 14.5256 15.9725 15.157 16.1079C15.8409 16.2545 16.4355 16.5176 16.9408 16.9093C17.9302 17.6762 17.7652 19.4275 16.5503 19.729C15.1413 20.0785 12.6327 19.6044 13.1154 20.9735C13.2728 21.4198 13.7889 21.8329 14.6639 22.2127C14.7566 22.253 14.8595 22.28 14.9599 22.2922C16.0502 22.425 16.6112 23.7898 15.559 24.1048C14.154 24.5254 12.733 24.0771 11.296 22.76C11.0618 22.5452 10.8736 22.2815 10.7573 21.9859C10.1275 20.3856 10.3166 18.9066 11.3248 17.5488C11.7444 16.9836 12.3698 16.6192 13.0328 16.3827C13.1103 16.355 13.1875 16.3276 13.2643 16.3005Z" fill="#1F7F8B"/>
</svg>
