<svg width="30" height="30" viewBox="0 0 30 30" fill="none" xmlns="http://www.w3.org/2000/svg">
<path d="M11.2094 24.0286V22.6063C11.2094 21.5662 12.0573 20.7211 13.1078 20.7142H16.9559C18.0115 20.7142 18.8671 21.5613 18.8671 22.6063V26.7079C18.8669 27.591 19.5789 28.3127 20.4706 28.3334H23.0359C25.5933 28.3334 27.6665 26.281 27.6665 23.7491V12.1172C27.6529 11.1212 27.1805 10.1859 26.3838 9.57745L17.61 2.58048C16.0731 1.36217 13.888 1.36217 12.351 2.58048L10.1672 4.33289" stroke="#1F7F8B" stroke-width="3" stroke-linecap="round" stroke-linejoin="round"/>
<path d="M10.8625 28.3333H6.9638C4.40643 28.3333 2.33325 26.2809 2.33325 23.7491V12.1298C2.34311 11.1329 2.81627 10.196 3.61596 9.59007L5.79975 7.83765" stroke="#1F7F8B" stroke-width="3" stroke-linecap="round" stroke-linejoin="round"/>
</svg>
