<svg width="31" height="32" viewBox="0 0 31 32" fill="none" xmlns="http://www.w3.org/2000/svg">
<path d="M10.8398 30.0513V25.1444C10.8397 23.9009 11.8708 22.8907 13.148 22.8829H17.8374C19.1203 22.8829 20.1602 23.8954 20.1602 25.1444V30.0371C20.1602 31.1156 21.0539 31.9921 22.1616 32H25.361C26.8552 32.0037 28.2895 31.4284 29.3475 30.4011C30.4054 29.3737 31 27.9788 31 26.524V12.5853C31 11.4102 30.465 10.2955 29.5391 9.54159L18.6701 1.07883C16.7702 -0.401403 14.0567 -0.353586 12.213 1.19261L1.57776 9.54159C0.608156 10.2733 0.0286379 11.3913 0 12.5853V26.5098C0 29.5419 2.52467 32 5.63902 32H8.76532C9.29865 32.0037 9.81148 31.8001 10.19 31.4342C10.5685 31.0684 10.7814 30.5706 10.7813 30.0513H10.8398Z" fill="#1F7F8B"/>
</svg>
